<svg width="265" height="56" viewBox="0 0 265 56" fill="none" xmlns="http://www.w3.org/2000/svg">
<rect width="265" height="56" rx="9" fill="#1E1E2E"/>
<path d="M39.0901 17.0234C37.0153 16.0705 34.8257 15.3909 32.5761 15.0014C32.5557 14.998 32.5348 15.0009 32.5162 15.0099C32.4976 15.0188 32.4822 15.0333 32.4721 15.0514C32.1901 15.5514 31.8781 16.2054 31.6601 16.7174C29.2354 16.3497 26.769 16.3497 24.3442 16.7174C24.1021 16.1465 23.8269 15.5903 23.5202 15.0514C23.5102 15.0333 23.4948 15.0188 23.4762 15.0099C23.4575 15.0009 23.4366 14.998 23.4162 15.0014C21.1662 15.3894 18.9763 16.0694 16.9023 17.0234C16.8845 17.03 16.8696 17.0428 16.8603 17.0594C12.7123 23.2573 11.5743 29.3032 12.1323 35.2732C12.1363 35.3025 12.1503 35.3272 12.1743 35.3472C14.5902 37.1356 17.2918 38.5016 20.1643 39.3871C20.1845 39.3935 20.2063 39.3933 20.2265 39.3865C20.2466 39.3796 20.2641 39.3666 20.2763 39.3491C20.8936 38.5091 21.4389 37.6232 21.9122 36.6912C21.9221 36.672 21.9254 36.6501 21.9218 36.6288C21.9182 36.6076 21.9078 36.588 21.8922 36.5732L21.8562 36.5512C20.995 36.2191 20.1605 35.8213 19.3603 35.3612C19.3379 35.3485 19.3213 35.3277 19.3139 35.3032C19.3064 35.2786 19.3087 35.2521 19.3203 35.2292L19.3503 35.1912C19.5196 35.0645 19.6849 34.9345 19.8463 34.8012C19.8604 34.7898 19.8773 34.7825 19.8953 34.78C19.9133 34.7776 19.9316 34.78 19.9483 34.7872C25.1862 37.1792 30.8561 37.1792 36.0301 34.7872C36.0473 34.7792 36.0664 34.7763 36.0851 34.7788C36.1039 34.7813 36.1216 34.7891 36.1361 34.8012C36.2974 34.9345 36.4628 35.0645 36.6321 35.1912C36.6462 35.2008 36.6575 35.2139 36.6651 35.2291C36.6727 35.2444 36.6763 35.2614 36.6755 35.2784C36.6747 35.2954 36.6696 35.312 36.6606 35.3265C36.6516 35.341 36.639 35.3529 36.6241 35.3612C35.8273 35.8285 34.9915 36.226 34.1261 36.5492C34.1123 36.5542 34.0998 36.5621 34.0894 36.5725C34.0791 36.5829 34.0711 36.5954 34.0661 36.6092C34.0612 36.6225 34.0593 36.6367 34.0603 36.6508C34.0613 36.6649 34.0654 36.6787 34.0721 36.6912C34.5521 37.6212 35.1021 38.5091 35.7061 39.3491C35.7183 39.3666 35.7357 39.3796 35.7559 39.3865C35.776 39.3933 35.7978 39.3935 35.8181 39.3871C38.6962 38.5065 41.4025 37.1401 43.82 35.3472C43.832 35.3387 43.842 35.3277 43.8493 35.3149C43.8565 35.3021 43.8609 35.2878 43.862 35.2732C44.53 28.3712 42.744 22.3753 39.1301 17.0614C39.1269 17.0523 39.1216 17.0441 39.1147 17.0375C39.1077 17.0309 39.0993 17.026 39.0901 17.0234ZM22.6942 31.6372C21.1162 31.6372 19.8183 30.1892 19.8183 28.4132C19.8183 26.6373 21.0922 25.1873 22.6942 25.1873C24.3082 25.1873 25.5942 26.6473 25.5702 28.4132C25.5702 30.1892 24.2962 31.6372 22.6942 31.6372ZM33.3261 31.6372C31.7501 31.6372 30.4501 30.1892 30.4501 28.4132C30.4501 26.6373 31.7241 25.1873 33.3261 25.1873C34.9401 25.1873 36.2281 26.6473 36.2021 28.4132C36.2021 30.1892 34.9401 31.6372 33.3261 31.6372Z" fill="#89B4FA"/>
<path d="M59.12 34.128C58.4587 34.128 57.84 33.9893 57.264 33.712C56.688 33.4347 56.2187 33.0347 55.856 32.512L56.784 31.424C57.0933 31.8507 57.44 32.1813 57.824 32.416C58.2187 32.64 58.6507 32.752 59.12 32.752C60.4 32.752 61.04 31.9947 61.04 30.48V24.192H56.992V22.8H62.624V30.4C62.624 31.648 62.3253 32.5813 61.728 33.2C61.1413 33.8187 60.272 34.128 59.12 34.128ZM69.2911 34.096C68.4378 34.096 67.6805 33.9093 67.0191 33.536C66.3578 33.1627 65.8351 32.6507 65.4511 32C65.0671 31.3387 64.8751 30.592 64.8751 29.76C64.8751 28.9173 65.0671 28.1707 65.4511 27.52C65.8351 26.8693 66.3578 26.3627 67.0191 26C67.6805 25.6267 68.4378 25.44 69.2911 25.44C70.1338 25.44 70.8858 25.6267 71.5471 26C72.2191 26.3627 72.7418 26.8693 73.1151 27.52C73.4991 28.16 73.6911 28.9067 73.6911 29.76C73.6911 30.6027 73.4991 31.3493 73.1151 32C72.7418 32.6507 72.2191 33.1627 71.5471 33.536C70.8858 33.9093 70.1338 34.096 69.2911 34.096ZM69.2911 32.752C69.8351 32.752 70.3205 32.6293 70.7471 32.384C71.1845 32.1387 71.5258 31.792 71.7711 31.344C72.0165 30.8853 72.1391 30.3573 72.1391 29.76C72.1391 29.152 72.0165 28.6293 71.7711 28.192C71.5258 27.744 71.1845 27.3973 70.7471 27.152C70.3205 26.9067 69.8351 26.784 69.2911 26.784C68.7471 26.784 68.2618 26.9067 67.8351 27.152C67.4085 27.3973 67.0671 27.744 66.8111 28.192C66.5551 28.6293 66.4271 29.152 66.4271 29.76C66.4271 30.3573 66.5551 30.8853 66.8111 31.344C67.0671 31.792 67.4085 32.1387 67.8351 32.384C68.2618 32.6293 68.7471 32.752 69.2911 32.752ZM75.8154 34V25.52H77.3514V34H75.8154ZM76.5834 23.888C76.2847 23.888 76.034 23.792 75.8314 23.6C75.6394 23.408 75.5434 23.1733 75.5434 22.896C75.5434 22.608 75.6394 22.368 75.8314 22.176C76.034 21.984 76.2847 21.888 76.5834 21.888C76.882 21.888 77.1274 21.984 77.3194 22.176C77.522 22.3573 77.6234 22.5867 77.6234 22.864C77.6234 23.152 77.5274 23.3973 77.3354 23.6C77.1434 23.792 76.8927 23.888 76.5834 23.888ZM84.8121 25.44C85.5055 25.44 86.1135 25.5733 86.6361 25.84C87.1695 26.1067 87.5855 26.512 87.8841 27.056C88.1828 27.6 88.3321 28.288 88.3321 29.12V34H86.7961V29.296C86.7961 28.4747 86.5935 27.856 86.1881 27.44C85.7935 27.024 85.2335 26.816 84.5081 26.816C83.9641 26.816 83.4895 26.9227 83.0841 27.136C82.6788 27.3493 82.3641 27.664 82.1401 28.08C81.9268 28.496 81.8201 29.0133 81.8201 29.632V34H80.2841V25.52H81.7561V27.808L81.5161 27.2C81.7935 26.6453 82.2201 26.2133 82.7961 25.904C83.3721 25.5947 84.0441 25.44 84.8121 25.44ZM99.1036 34.096C98.2503 34.096 97.493 33.9093 96.8316 33.536C96.1703 33.1627 95.6476 32.6507 95.2636 32C94.8796 31.3387 94.6876 30.592 94.6876 29.76C94.6876 28.9173 94.8796 28.1707 95.2636 27.52C95.6476 26.8693 96.1703 26.3627 96.8316 26C97.493 25.6267 98.2503 25.44 99.1036 25.44C99.9463 25.44 100.698 25.6267 101.36 26C102.032 26.3627 102.554 26.8693 102.928 27.52C103.312 28.16 103.504 28.9067 103.504 29.76C103.504 30.6027 103.312 31.3493 102.928 32C102.554 32.6507 102.032 33.1627 101.36 33.536C100.698 33.9093 99.9463 34.096 99.1036 34.096ZM99.1036 32.752C99.6476 32.752 100.133 32.6293 100.56 32.384C100.997 32.1387 101.338 31.792 101.584 31.344C101.829 30.8853 101.952 30.3573 101.952 29.76C101.952 29.152 101.829 28.6293 101.584 28.192C101.338 27.744 100.997 27.3973 100.56 27.152C100.133 26.9067 99.6476 26.784 99.1036 26.784C98.5596 26.784 98.0743 26.9067 97.6476 27.152C97.221 27.3973 96.8796 27.744 96.6236 28.192C96.3676 28.6293 96.2396 29.152 96.2396 29.76C96.2396 30.3573 96.3676 30.8853 96.6236 31.344C96.8796 31.792 97.221 32.1387 97.6476 32.384C98.0743 32.6293 98.5596 32.752 99.1036 32.752ZM109.196 34.096C108.471 34.096 107.831 33.9627 107.276 33.696C106.732 33.4293 106.305 33.024 105.996 32.48C105.697 31.9253 105.548 31.232 105.548 30.4V25.52H107.084V30.224C107.084 31.056 107.281 31.68 107.676 32.096C108.081 32.512 108.647 32.72 109.372 32.72C109.905 32.72 110.369 32.6133 110.764 32.4C111.159 32.176 111.463 31.856 111.676 31.44C111.889 31.0133 111.996 30.5013 111.996 29.904V25.52H113.532V34H112.076V31.712L112.316 32.32C112.039 32.8853 111.623 33.3227 111.068 33.632C110.513 33.9413 109.889 34.096 109.196 34.096ZM116.456 34V25.52H117.928V27.824L117.784 27.248C118.019 26.6613 118.413 26.2133 118.968 25.904C119.523 25.5947 120.205 25.44 121.016 25.44V26.928C120.952 26.9173 120.888 26.912 120.824 26.912C120.771 26.912 120.717 26.912 120.664 26.912C119.843 26.912 119.192 27.1573 118.712 27.648C118.232 28.1387 117.992 28.848 117.992 29.776V34H116.456Z" fill="#CDD6F4"/>
<path d="M127.187 34V22.8H132.275C133.491 22.8 134.563 23.0347 135.491 23.504C136.419 23.9627 137.145 24.608 137.667 25.44C138.19 26.272 138.451 27.2587 138.451 28.4C138.451 29.5307 138.19 30.5173 137.667 31.36C137.145 32.192 136.419 32.8427 135.491 33.312C134.563 33.7707 133.491 34 132.275 34H127.187ZM129.779 31.872H132.147C132.894 31.872 133.539 31.7333 134.083 31.456C134.638 31.168 135.065 30.7627 135.363 30.24C135.673 29.7173 135.827 29.104 135.827 28.4C135.827 27.6853 135.673 27.072 135.363 26.56C135.065 26.0373 134.638 25.6373 134.083 25.36C133.539 25.072 132.894 24.928 132.147 24.928H129.779V31.872ZM140.23 34V25.392H142.726V34H140.23ZM141.478 24.192C141.019 24.192 140.646 24.0587 140.358 23.792C140.07 23.5253 139.926 23.1947 139.926 22.8C139.926 22.4053 140.07 22.0747 140.358 21.808C140.646 21.5413 141.019 21.408 141.478 21.408C141.937 21.408 142.31 21.536 142.598 21.792C142.886 22.0373 143.03 22.3573 143.03 22.752C143.03 23.168 142.886 23.5147 142.598 23.792C142.321 24.0587 141.947 24.192 141.478 24.192ZM147.939 34.128C147.203 34.128 146.493 34.0427 145.811 33.872C145.139 33.6907 144.605 33.4667 144.211 33.2L145.043 31.408C145.437 31.6533 145.901 31.856 146.435 32.016C146.979 32.1653 147.512 32.24 148.035 32.24C148.611 32.24 149.016 32.1707 149.251 32.032C149.496 31.8933 149.619 31.7013 149.619 31.456C149.619 31.2533 149.523 31.104 149.331 31.008C149.149 30.9013 148.904 30.8213 148.595 30.768C148.285 30.7147 147.944 30.6613 147.571 30.608C147.208 30.5547 146.84 30.4853 146.467 30.4C146.093 30.304 145.752 30.1653 145.443 29.984C145.133 29.8027 144.883 29.5573 144.691 29.248C144.509 28.9387 144.419 28.5387 144.419 28.048C144.419 27.504 144.573 27.024 144.883 26.608C145.203 26.192 145.661 25.8667 146.259 25.632C146.856 25.3867 147.571 25.264 148.403 25.264C148.989 25.264 149.587 25.328 150.195 25.456C150.803 25.584 151.309 25.7707 151.715 26.016L150.883 27.792C150.467 27.5467 150.045 27.3813 149.619 27.296C149.203 27.2 148.797 27.152 148.403 27.152C147.848 27.152 147.443 27.2267 147.187 27.376C146.931 27.5253 146.803 27.7173 146.803 27.952C146.803 28.1653 146.893 28.3253 147.075 28.432C147.267 28.5387 147.517 28.624 147.827 28.688C148.136 28.752 148.472 28.8107 148.835 28.864C149.208 28.9067 149.581 28.976 149.955 29.072C150.328 29.168 150.664 29.3067 150.963 29.488C151.272 29.6587 151.523 29.8987 151.715 30.208C151.907 30.5067 152.003 30.9013 152.003 31.392C152.003 31.9253 151.843 32.4 151.523 32.816C151.203 33.2213 150.739 33.5413 150.131 33.776C149.533 34.0107 148.803 34.128 147.939 34.128ZM157.703 34.128C156.775 34.128 155.948 33.9413 155.223 33.568C154.497 33.184 153.927 32.656 153.511 31.984C153.105 31.312 152.903 30.5493 152.903 29.696C152.903 28.832 153.105 28.0693 153.511 27.408C153.927 26.736 154.497 26.2133 155.223 25.84C155.948 25.456 156.775 25.264 157.703 25.264C158.609 25.264 159.399 25.456 160.071 25.84C160.743 26.2133 161.239 26.752 161.559 27.456L159.623 28.496C159.399 28.0907 159.116 27.792 158.775 27.6C158.444 27.408 158.081 27.312 157.687 27.312C157.26 27.312 156.876 27.408 156.535 27.6C156.193 27.792 155.921 28.064 155.719 28.416C155.527 28.768 155.431 29.1947 155.431 29.696C155.431 30.1973 155.527 30.624 155.719 30.976C155.921 31.328 156.193 31.6 156.535 31.792C156.876 31.984 157.26 32.08 157.687 32.08C158.081 32.08 158.444 31.9893 158.775 31.808C159.116 31.616 159.399 31.312 159.623 30.896L161.559 31.952C161.239 32.6453 160.743 33.184 160.071 33.568C159.399 33.9413 158.609 34.128 157.703 34.128ZM166.982 34.128C166.065 34.128 165.249 33.936 164.534 33.552C163.83 33.168 163.27 32.6453 162.854 31.984C162.449 31.312 162.246 30.5493 162.246 29.696C162.246 28.832 162.449 28.0693 162.854 27.408C163.27 26.736 163.83 26.2133 164.534 25.84C165.249 25.456 166.065 25.264 166.982 25.264C167.889 25.264 168.7 25.456 169.414 25.84C170.129 26.2133 170.689 26.7307 171.094 27.392C171.5 28.0533 171.702 28.8213 171.702 29.696C171.702 30.5493 171.5 31.312 171.094 31.984C170.689 32.6453 170.129 33.168 169.414 33.552C168.7 33.936 167.889 34.128 166.982 34.128ZM166.982 32.08C167.398 32.08 167.772 31.984 168.102 31.792C168.433 31.6 168.694 31.328 168.886 30.976C169.078 30.6133 169.174 30.1867 169.174 29.696C169.174 29.1947 169.078 28.768 168.886 28.416C168.694 28.064 168.433 27.792 168.102 27.6C167.772 27.408 167.398 27.312 166.982 27.312C166.566 27.312 166.193 27.408 165.862 27.6C165.532 27.792 165.265 28.064 165.062 28.416C164.87 28.768 164.774 29.1947 164.774 29.696C164.774 30.1867 164.87 30.6133 165.062 30.976C165.265 31.328 165.532 31.6 165.862 31.792C166.193 31.984 166.566 32.08 166.982 32.08ZM173.371 34V25.392H175.755V27.824L175.419 27.12C175.675 26.512 176.085 26.0533 176.651 25.744C177.216 25.424 177.904 25.264 178.715 25.264V27.568C178.608 27.5573 178.512 27.552 178.427 27.552C178.341 27.5413 178.251 27.536 178.155 27.536C177.472 27.536 176.917 27.7333 176.491 28.128C176.075 28.512 175.867 29.1147 175.867 29.936V34H173.371ZM183.832 34.128C183.022 34.128 182.291 33.9467 181.64 33.584C180.99 33.2107 180.472 32.6933 180.088 32.032C179.715 31.3707 179.528 30.592 179.528 29.696C179.528 28.7893 179.715 28.0053 180.088 27.344C180.472 26.6827 180.99 26.1707 181.64 25.808C182.291 25.4453 183.022 25.264 183.832 25.264C184.558 25.264 185.192 25.424 185.736 25.744C186.28 26.064 186.702 26.5493 187 27.2C187.299 27.8507 187.448 28.6827 187.448 29.696C187.448 30.6987 187.304 31.5307 187.016 32.192C186.728 32.8427 186.312 33.328 185.768 33.648C185.235 33.968 184.59 34.128 183.832 34.128ZM184.264 32.08C184.67 32.08 185.038 31.984 185.368 31.792C185.699 31.6 185.96 31.328 186.152 30.976C186.355 30.6133 186.456 30.1867 186.456 29.696C186.456 29.1947 186.355 28.768 186.152 28.416C185.96 28.064 185.699 27.792 185.368 27.6C185.038 27.408 184.67 27.312 184.264 27.312C183.848 27.312 183.475 27.408 183.144 27.6C182.814 27.792 182.547 28.064 182.344 28.416C182.152 28.768 182.056 29.1947 182.056 29.696C182.056 30.1867 182.152 30.6133 182.344 30.976C182.547 31.328 182.814 31.6 183.144 31.792C183.475 31.984 183.848 32.08 184.264 32.08ZM186.52 34V32.24L186.568 29.68L186.408 27.136V22.128H188.904V34H186.52ZM199.602 34.192C198.706 34.192 197.847 34.0747 197.026 33.84C196.204 33.5947 195.543 33.28 195.042 32.896L195.922 30.944C196.402 31.2853 196.967 31.568 197.618 31.792C198.279 32.0053 198.946 32.112 199.618 32.112C200.13 32.112 200.54 32.064 200.85 31.968C201.17 31.8613 201.404 31.7173 201.554 31.536C201.703 31.3547 201.778 31.1467 201.778 30.912C201.778 30.6133 201.66 30.3787 201.426 30.208C201.191 30.0267 200.882 29.8827 200.498 29.776C200.114 29.6587 199.687 29.552 199.218 29.456C198.759 29.3493 198.295 29.2213 197.826 29.072C197.367 28.9227 196.946 28.7307 196.562 28.496C196.178 28.2613 195.863 27.952 195.618 27.568C195.383 27.184 195.266 26.6933 195.266 26.096C195.266 25.456 195.436 24.8747 195.778 24.352C196.13 23.8187 196.652 23.3973 197.346 23.088C198.05 22.768 198.93 22.608 199.986 22.608C200.69 22.608 201.383 22.6933 202.066 22.864C202.748 23.024 203.351 23.2693 203.874 23.6L203.074 25.568C202.551 25.2693 202.028 25.0507 201.506 24.912C200.983 24.7627 200.471 24.688 199.97 24.688C199.468 24.688 199.058 24.7467 198.738 24.864C198.418 24.9813 198.188 25.136 198.05 25.328C197.911 25.5093 197.842 25.7227 197.842 25.968C197.842 26.256 197.959 26.4907 198.194 26.672C198.428 26.8427 198.738 26.9813 199.122 27.088C199.506 27.1947 199.927 27.3013 200.386 27.408C200.855 27.5147 201.319 27.6373 201.778 27.776C202.247 27.9147 202.674 28.1013 203.058 28.336C203.442 28.5707 203.751 28.88 203.986 29.264C204.231 29.648 204.354 30.1333 204.354 30.72C204.354 31.3493 204.178 31.9253 203.826 32.448C203.474 32.9707 202.946 33.392 202.242 33.712C201.548 34.032 200.668 34.192 199.602 34.192ZM210.221 34.128C209.24 34.128 208.376 33.936 207.629 33.552C206.893 33.168 206.322 32.6453 205.917 31.984C205.512 31.312 205.309 30.5493 205.309 29.696C205.309 28.832 205.506 28.0693 205.901 27.408C206.306 26.736 206.856 26.2133 207.549 25.84C208.242 25.456 209.026 25.264 209.901 25.264C210.744 25.264 211.501 25.4453 212.173 25.808C212.856 26.16 213.394 26.672 213.789 27.344C214.184 28.0053 214.381 28.8 214.381 29.728C214.381 29.824 214.376 29.936 214.365 30.064C214.354 30.1813 214.344 30.2933 214.333 30.4H207.341V28.944H213.021L212.061 29.376C212.061 28.928 211.97 28.5387 211.789 28.208C211.608 27.8773 211.357 27.6213 211.037 27.44C210.717 27.248 210.344 27.152 209.917 27.152C209.49 27.152 209.112 27.248 208.781 27.44C208.461 27.6213 208.21 27.8827 208.029 28.224C207.848 28.5547 207.757 28.9493 207.757 29.408V29.792C207.757 30.2613 207.858 30.6773 208.061 31.04C208.274 31.392 208.568 31.664 208.941 31.856C209.325 32.0373 209.773 32.128 210.285 32.128C210.744 32.128 211.144 32.0587 211.485 31.92C211.837 31.7813 212.157 31.5733 212.445 31.296L213.773 32.736C213.378 33.184 212.882 33.5307 212.285 33.776C211.688 34.0107 211 34.128 210.221 34.128ZM216.043 34V25.392H218.427V27.824L218.091 27.12C218.347 26.512 218.757 26.0533 219.323 25.744C219.888 25.424 220.576 25.264 221.387 25.264V27.568C221.28 27.5573 221.184 27.552 221.099 27.552C221.013 27.5413 220.923 27.536 220.827 27.536C220.144 27.536 219.589 27.7333 219.163 28.128C218.747 28.512 218.539 29.1147 218.539 29.936V34H216.043ZM225.504 34L221.888 25.392H224.464L227.472 32.8H226.192L229.312 25.392H231.712L228.08 34H225.504ZM236.768 34.128C235.786 34.128 234.922 33.936 234.176 33.552C233.44 33.168 232.869 32.6453 232.464 31.984C232.058 31.312 231.856 30.5493 231.856 29.696C231.856 28.832 232.053 28.0693 232.448 27.408C232.853 26.736 233.402 26.2133 234.096 25.84C234.789 25.456 235.573 25.264 236.448 25.264C237.29 25.264 238.048 25.4453 238.72 25.808C239.402 26.16 239.941 26.672 240.336 27.344C240.73 28.0053 240.928 28.8 240.928 29.728C240.928 29.824 240.922 29.936 240.912 30.064C240.901 30.1813 240.89 30.2933 240.88 30.4H233.888V28.944H239.568L238.608 29.376C238.608 28.928 238.517 28.5387 238.336 28.208C238.154 27.8773 237.904 27.6213 237.584 27.44C237.264 27.248 236.89 27.152 236.464 27.152C236.037 27.152 235.658 27.248 235.328 27.44C235.008 27.6213 234.757 27.8827 234.576 28.224C234.394 28.5547 234.304 28.9493 234.304 29.408V29.792C234.304 30.2613 234.405 30.6773 234.608 31.04C234.821 31.392 235.114 31.664 235.488 31.856C235.872 32.0373 236.32 32.128 236.832 32.128C237.29 32.128 237.69 32.0587 238.032 31.92C238.384 31.7813 238.704 31.5733 238.992 31.296L240.32 32.736C239.925 33.184 239.429 33.5307 238.832 33.776C238.234 34.0107 237.546 34.128 236.768 34.128ZM242.59 34V25.392H244.974V27.824L244.638 27.12C244.894 26.512 245.304 26.0533 245.87 25.744C246.435 25.424 247.123 25.264 247.934 25.264V27.568C247.827 27.5573 247.731 27.552 247.646 27.552C247.56 27.5413 247.47 27.536 247.374 27.536C246.691 27.536 246.136 27.7333 245.71 28.128C245.294 28.512 245.086 29.1147 245.086 29.936V34H242.59Z" fill="#89B4FA"/>
</svg>
